<svg width="165" height="41" viewBox="0 0 165 41" fill="none" xmlns="http://www.w3.org/2000/svg">
<path d="M85.9359 30.1789C85.9359 33.1124 84.8064 35.6426 82.5476 37.7694C80.4704 39.8363 77.6628 40.9974 74.7356 41V36.167C76.4004 36.202 78.0129 35.5835 79.2289 34.4435C79.8356 33.9144 80.3188 33.2582 80.6445 32.5213C80.9701 31.7843 81.1301 30.9847 81.1133 30.1789V8.03792H85.9359V30.1789ZM81.1133 0H85.9359V4.78535H81.1133V0Z" fill="white"/>
<path d="M113.957 20.513C113.945 23.9241 112.583 27.1912 110.171 29.5974C107.758 32.0035 104.492 33.3522 101.088 33.3473C99.403 33.3521 97.7337 33.0237 96.1758 32.3809C94.6178 31.738 93.2016 30.7934 92.0086 29.6012C90.8155 28.4089 89.8689 26.9925 89.223 25.4329C88.5771 23.8734 88.2447 22.2015 88.2447 20.513C88.2193 18.8224 88.54 17.1444 89.187 15.5829C89.8339 14.0213 90.7934 12.6091 92.0062 11.4337C93.1948 10.2314 94.6094 9.27706 96.1682 8.62577C97.7269 7.97449 99.399 7.63916 101.088 7.63916C102.777 7.63916 104.449 7.97449 106.008 8.62577C107.566 9.27706 108.981 10.2314 110.17 11.4337C111.386 12.6075 112.35 14.0187 113.001 15.5803C113.653 17.1418 113.978 18.8206 113.957 20.513ZM109.134 20.513C109.11 18.3832 108.254 16.3478 106.748 14.8442C105.243 13.3405 103.209 12.4886 101.084 12.4714C98.9608 12.4858 96.9285 13.3378 95.4274 14.8429C93.9262 16.348 93.077 18.385 93.0636 20.513C93.1944 22.5591 94.0977 24.4785 95.5898 25.8812C97.082 27.2839 99.0511 28.0645 101.097 28.0645C103.143 28.0645 105.112 27.2839 106.604 25.8812C108.096 24.4785 109 22.5591 109.13 20.513H109.134Z" fill="white"/>
<path d="M141.688 20.5128C141.677 23.9195 140.319 27.1827 137.912 29.5881C135.505 31.9936 132.245 33.3452 128.845 33.3471C127.16 33.3524 125.49 33.0244 123.932 32.3818C122.374 31.7392 120.957 30.7946 119.764 29.6023C118.57 28.41 117.623 26.9934 116.977 25.4336C116.331 23.8739 115.998 22.2017 115.998 20.5128V0H120.821V11.0558C121.971 9.93586 123.333 9.05679 124.826 8.46991C126.319 7.88303 127.914 7.60011 129.517 7.63766C131.12 7.67521 132.7 8.03248 134.164 8.68862C135.628 9.34475 136.947 10.2866 138.044 11.4592C140.408 13.8739 141.719 17.1302 141.688 20.5128ZM136.866 20.5128C136.877 19.4571 136.672 18.4103 136.264 17.4371C135.855 16.4639 135.252 15.585 134.491 14.8548C133.754 14.1003 132.873 13.5008 131.901 13.0916C130.93 12.6824 129.886 12.4717 128.832 12.4717C127.778 12.4717 126.735 12.6824 125.763 13.0916C124.792 13.5008 123.911 14.1003 123.174 14.8548C122.417 15.587 121.818 16.4668 121.413 17.4398C121.009 18.4129 120.807 19.4587 120.821 20.5128C120.829 22.6429 121.677 24.6834 123.18 26.1893C124.683 27.6951 126.72 28.544 128.845 28.5508C129.897 28.566 130.941 28.3647 131.912 27.9591C132.884 27.5535 133.761 26.9524 134.491 26.1929C135.253 25.459 135.857 24.5763 136.265 23.5993C136.674 22.6224 136.878 21.572 136.866 20.5128Z" fill="white"/>
<path d="M164.656 28.4043V33.3473H142.413L155.875 12.6328H142.731V7.64209H165L151.524 28.4043H164.656Z" fill="white"/>
<path d="M51.5227 26.6987C50.6832 28.1996 49.5565 29.5198 48.2072 30.5838C46.858 31.6478 45.3126 32.4347 43.6595 32.8995C42.0318 33.3978 40.3174 33.5457 38.6286 33.3333C36.9399 33.121 35.3151 32.5533 33.8606 31.6674C32.3811 30.8464 31.0824 29.7342 30.0424 28.3977C29.0025 27.0612 28.2426 25.5279 27.8086 23.8899C27.3347 22.2701 27.2016 20.5694 27.4176 18.8955C27.6337 17.2215 28.1942 15.6107 29.0637 14.1651C29.9027 12.6945 31.023 11.4042 32.3605 10.3683C33.6981 9.33241 35.2264 8.57121 36.858 8.12836C38.4896 7.68551 40.1924 7.56971 41.8688 7.7876C43.5451 8.0055 45.1621 8.55279 46.627 9.39812C48.2684 10.3871 49.6914 11.7009 50.8092 13.2594L46.8904 16.1086C46.1861 15.0807 45.2719 14.2145 44.2084 13.5674C43.301 13.0211 42.2904 12.6695 41.2404 12.5351C40.1904 12.4006 39.124 12.4862 38.1088 12.7864C37.0872 13.0555 36.1304 13.5283 35.2954 14.1767C34.4605 14.825 33.7647 15.6355 33.2496 16.5596C32.7084 17.4644 32.3592 18.4713 32.2239 19.5174C32.0885 20.5634 32.1699 21.6263 32.4629 22.6394C32.731 23.6677 33.2045 24.6308 33.8548 25.4704C34.5052 26.31 35.3187 27.0085 36.2463 27.5238C37.1528 28.0803 38.1693 28.4322 39.2252 28.555C40.2811 28.6779 41.351 28.5687 42.3605 28.2352C44.4602 27.6048 46.2337 26.1824 47.3075 24.2675L51.5227 26.6987Z" fill="#0CDC12"/>
<path d="M78.958 20.535C78.9464 23.9455 77.5854 27.212 75.1735 29.6181C72.7617 32.0241 69.496 33.3732 66.0929 33.3693C64.405 33.3964 62.7292 33.078 61.1683 32.4336C59.6074 31.7892 58.1941 30.8324 57.0149 29.6217C55.8005 28.4457 54.8399 27.0325 54.1922 25.4696C53.5446 23.9066 53.2238 22.2271 53.2497 20.535C53.2254 18.8447 53.5469 17.1673 54.1944 15.6064C54.842 14.0455 55.8019 12.6341 57.0149 11.4593C58.2032 10.2577 59.6172 9.30395 61.1753 8.65303C62.7335 8.00212 64.4048 7.66699 66.0929 7.66699C67.781 7.66699 69.4524 8.00212 71.0105 8.65303C72.5686 9.30395 73.9827 10.2577 75.171 11.4593C76.3874 12.6326 77.351 14.0432 78.0023 15.6041C78.6537 17.1651 78.9789 18.8432 78.958 20.535ZM74.1354 20.535C74.1446 19.2041 73.8251 17.8917 73.2053 16.7146C72.5856 15.5375 71.6848 14.5324 70.5834 13.7888C69.482 13.0452 68.2141 12.5862 66.8928 12.4528C65.5715 12.3193 64.2377 12.5156 63.0104 13.0241C61.7831 13.5325 60.7004 14.3374 59.8588 15.3669C59.0172 16.3964 58.4428 17.6186 58.1869 18.9246C57.9309 20.2305 58.0013 21.5796 58.3919 22.8517C58.7824 24.1237 59.4809 25.2792 60.4251 26.2151C61.1686 26.9637 62.0524 27.5577 63.0257 27.9631C63.999 28.3684 65.0426 28.577 66.0966 28.577C67.1505 28.577 68.1941 28.3684 69.1674 27.9631C70.1407 27.5577 71.0245 26.9637 71.7681 26.2151C72.5288 25.4805 73.1313 24.5975 73.5385 23.6206C73.9456 22.6437 74.1488 21.5936 74.1354 20.535Z" fill="#0CDC12"/>
<path d="M20.5272 24.7114C20.1524 25.4724 19.6583 26.1681 19.0636 26.7722C18.2619 27.594 17.3004 28.2419 16.2385 28.6759C15.1767 29.1099 14.0372 29.3206 12.8908 29.295C11.7426 29.319 10.6016 29.1073 9.53814 28.6728C8.47467 28.2383 7.5112 27.5902 6.70703 26.7685C5.39903 25.3144 4.4403 23.5797 3.90422 21.6972C3.90422 21.6972 6.64483 24.6674 11.6467 24.9314C14.4934 25.0817 18.1488 22.8376 20.9992 22.3462C22.5272 22.0599 24.1028 22.1698 25.5766 22.6652C25.6808 21.9735 25.7298 21.2746 25.723 20.5751C25.7522 18.8745 25.4328 17.1861 24.7845 15.6143C24.1362 14.0424 23.1729 12.6207 21.9542 11.4371C20.7747 10.2214 19.3597 9.26024 17.7961 8.61262C16.2325 7.965 14.5532 7.64461 12.8615 7.67113C11.168 7.64311 9.48662 7.96276 7.92099 8.61043C6.35536 9.25809 4.93857 10.22 3.75786 11.4371C2.54293 12.6199 1.5827 14.0397 0.936401 15.6088C0.290099 17.1779 -0.028573 18.8631 3.97821e-05 20.5604C-0.0313047 22.2608 0.286046 23.9495 0.932435 25.522C1.57882 27.0945 2.54049 28.5172 3.75786 29.7021C4.93943 30.917 6.3567 31.8766 7.92237 32.5217C9.48804 33.1669 11.1689 33.4839 12.8615 33.4534C14.5522 33.4824 16.231 33.1646 17.7947 32.5195C19.3584 31.8744 20.7739 30.9156 21.9542 29.7021C22.7246 28.8284 23.4303 27.8994 24.0654 26.9225L20.5272 24.7114ZM21.9542 18.4519C21.9542 18.4519 21.4602 18.0082 20.0186 18.936C7.84864 26.7685 6.16183 16.6735 6.16183 16.6735C8.0038 16.3949 9.87295 16.3444 11.7272 16.5231C13.6079 16.7175 14.2044 16.8091 15.2289 16.9631C15.4375 16.9631 15.5948 16.6661 15.2472 16.5708C13.9263 16.2041 10.5271 15.7421 6.16183 15.8667C6.16183 15.8667 13.6372 5.34263 21.9542 18.4519Z" fill="#0CDC12"/>
</svg>
