<svg width="37" height="37" viewBox="0 0 37 37" fill="none" xmlns="http://www.w3.org/2000/svg">
<path fill-rule="evenodd" clip-rule="evenodd" d="M18.5 36C28.165 36 36 28.165 36 18.5C36 8.83502 28.165 1 18.5 1C8.83502 1 1 8.83502 1 18.5C1 28.165 8.83502 36 18.5 36Z" stroke="#B5B5BD" stroke-width="1.5"/>
<path d="M22.3334 14.6665C23.6595 14.6665 24.9312 15.1933 25.8689 16.131C26.8066 17.0687 27.3334 18.3404 27.3334 19.6665V25.4998H24V19.6665C24 19.2245 23.8244 18.8006 23.5119 18.488C23.1993 18.1754 22.7754 17.9998 22.3334 17.9998C21.8913 17.9998 21.4674 18.1754 21.1549 18.488C20.8423 18.8006 20.6667 19.2245 20.6667 19.6665V25.4998H17.3334V19.6665C17.3334 18.3404 17.8602 17.0687 18.7978 16.131C19.7355 15.1933 21.0073 14.6665 22.3334 14.6665Z" fill="#676464"/>
<path d="M14 15.5H10.6666V25.5H14V15.5Z" fill="#676464"/>
<path d="M12.3333 12.9998C13.2538 12.9998 14 12.2536 14 11.3332C14 10.4127 13.2538 9.6665 12.3333 9.6665C11.4128 9.6665 10.6666 10.4127 10.6666 11.3332C10.6666 12.2536 11.4128 12.9998 12.3333 12.9998Z" fill="#676464"/>
</svg>
