<svg width="37" height="37" viewBox="0 0 37 37" fill="none" xmlns="http://www.w3.org/2000/svg">
<path d="M24.6666 12.3335C27.1199 12.3335 29.4727 13.308 31.2074 15.0428C32.9421 16.7775 33.9166 19.1302 33.9166 21.5835V32.3752H27.75V21.5835C27.75 20.7657 27.4251 19.9815 26.8469 19.4033C26.2686 18.825 25.4844 18.5002 24.6666 18.5002C23.8489 18.5002 23.0646 18.825 22.4864 19.4033C21.9081 19.9815 21.5833 20.7657 21.5833 21.5835V32.3752H15.4166V21.5835C15.4166 19.1302 16.3912 16.7775 18.1259 15.0428C19.8606 13.308 22.2134 12.3335 24.6666 12.3335Z" fill="white"/>
<path d="M9.25004 13.875H3.08337V32.375H9.25004V13.875Z" fill="white"/>
<path d="M6.16671 9.25016C7.86959 9.25016 9.25004 7.86971 9.25004 6.16683C9.25004 4.46395 7.86959 3.0835 6.16671 3.0835C4.46383 3.0835 3.08337 4.46395 3.08337 6.16683C3.08337 7.86971 4.46383 9.25016 6.16671 9.25016Z" fill="white"/>
</svg>
