<svg width="16" height="18" viewBox="0 0 16 18" fill="none" xmlns="http://www.w3.org/2000/svg">
<path fill-rule="evenodd" clip-rule="evenodd" d="M11.978 3.89695C12.5005 4.4193 12.915 5.03946 13.1977 5.72202C13.4806 6.40457 13.626 7.13614 13.626 7.87495C13.626 8.61376 13.4806 9.34533 13.1977 10.0279C12.915 10.7104 12.5005 11.3306 11.978 11.8529L8 15.8287L4.022 11.8518C3.49961 11.3295 3.08521 10.7092 2.8025 10.0267C2.51978 9.34416 2.37426 8.6126 2.37426 7.87383C2.37426 7.13504 2.51978 6.4035 2.8025 5.72095C3.08521 5.0384 3.49961 4.41822 4.022 3.89583C4.5444 3.37342 5.16458 2.95904 5.84712 2.67632C6.52967 2.39359 7.26122 2.24808 8 2.24808C8.73879 2.24808 9.47033 2.39359 10.1529 2.67632C10.8354 2.95904 11.4556 3.37342 11.978 3.89583V3.89695ZM13.1705 13.0454C14.1932 12.0228 14.8897 10.7198 15.172 9.30134C15.4541 7.88284 15.3093 6.4125 14.756 5.07628C14.2025 3.74006 13.2652 2.59797 12.0627 1.79443C10.8601 0.990898 9.4463 0.562012 8 0.562012C6.5537 0.562012 5.13988 0.990898 3.93733 1.79443C2.73479 2.59797 1.79753 3.74006 1.24407 5.07628C0.690627 6.4125 0.545851 7.88284 0.828057 9.30134C1.11026 10.7198 1.80677 12.0228 2.8295 13.0454L6.80638 17.0234C6.96309 17.1803 7.14916 17.3047 7.35398 17.3895C7.55879 17.4745 7.77831 17.5181 8 17.5181C8.2217 17.5181 8.44123 17.4745 8.64603 17.3895C8.85084 17.3047 9.03691 17.1803 9.19362 17.0234L13.1705 13.0454ZM8 10.125C8.59674 10.125 9.16903 9.88789 9.591 9.46594C10.013 9.04398 10.25 8.47169 10.25 7.87495C10.25 7.27821 10.013 6.70592 9.591 6.28395C9.16903 5.862 8.59674 5.62495 8 5.62495C7.40327 5.62495 6.83097 5.862 6.40901 6.28395C5.98706 6.70592 5.75 7.27821 5.75 7.87495C5.75 8.47169 5.98706 9.04398 6.40901 9.46594C6.83097 9.88789 7.40327 10.125 8 10.125Z" fill="#2D3748"/>
</svg>
