<svg width="161" height="40" viewBox="0 0 161 40" fill="none" xmlns="http://www.w3.org/2000/svg">
<g clip-path="url(#clip0_265_16178)">
<path d="M83.8526 29.4428C83.8526 32.3048 82.7505 34.7733 80.5465 36.8482C78.5196 38.8647 75.78 39.9975 72.9238 40V35.2849C74.5482 35.319 76.1216 34.7156 77.3082 33.6034C77.9002 33.0873 78.3717 32.447 78.6894 31.7281C79.0072 31.0091 79.1633 30.2289 79.1469 29.4428V7.84187H83.8526V29.4428ZM79.1469 0H83.8526V4.66863H79.1469V0Z" fill="#0A0A0A"/>
<path d="M111.194 20.0125C111.183 23.3404 109.854 26.5278 107.5 28.8753C105.146 31.2227 101.958 32.5385 98.6372 32.5337C96.9932 32.5384 95.3644 32.218 93.8442 31.5909C92.3239 30.9637 90.9422 30.0422 89.778 28.879C88.6139 27.7158 87.6902 26.3339 87.06 24.8124C86.4298 23.2909 86.1054 21.6598 86.1054 20.0125C86.0806 18.3631 86.3935 16.7261 87.0248 15.2026C87.6561 13.6791 88.5923 12.3014 89.7757 11.1546C90.9355 9.98165 92.3158 9.05059 93.8368 8.41519C95.3578 7.77979 96.9893 7.45264 98.6372 7.45264C100.285 7.45264 101.917 7.77979 103.438 8.41519C104.959 9.05059 106.339 9.98165 107.499 11.1546C108.686 12.2998 109.626 13.6766 110.262 15.2001C110.897 16.7236 111.215 18.3614 111.194 20.0125ZM106.488 20.0125C106.465 17.9347 105.629 15.9489 104.16 14.4819C102.692 13.0149 100.707 12.1838 98.6336 12.167C96.5617 12.1811 94.5787 13.0123 93.114 14.4807C91.6492 15.949 90.8206 17.9364 90.8075 20.0125C90.9351 22.0087 91.8165 23.8813 93.2725 25.2498C94.7285 26.6182 96.6498 27.3798 98.6461 27.3798C100.642 27.3798 102.564 26.6182 104.02 25.2498C105.476 23.8813 106.357 22.0087 106.485 20.0125H106.488Z" fill="#0A0A0A"/>
<path d="M138.254 20.0125C138.242 23.3361 136.917 26.5197 134.568 28.8665C132.22 31.2132 129.039 32.5319 125.722 32.5338C124.077 32.5389 122.448 32.2189 120.928 31.592C119.407 30.965 118.025 30.0435 116.86 28.8803C115.696 27.7171 114.772 26.335 114.141 24.8133C113.511 23.2916 113.186 21.6602 113.186 20.0125V0H117.892V10.7862C119.014 9.69352 120.343 8.83589 121.8 8.26333C123.257 7.69077 124.813 7.41474 126.377 7.45138C127.942 7.48801 129.483 7.83657 130.912 8.4767C132.34 9.11683 133.627 10.0357 134.697 11.1797C137.004 13.5355 138.283 16.7124 138.254 20.0125ZM133.548 20.0125C133.559 18.9825 133.359 17.9612 132.96 17.0118C132.562 16.0623 131.973 15.2048 131.231 14.4924C130.511 13.7563 129.652 13.1716 128.704 12.7723C127.756 12.3731 126.738 12.1675 125.709 12.1675C124.681 12.1675 123.663 12.3731 122.715 12.7723C121.766 13.1716 120.907 13.7563 120.188 14.4924C119.449 15.2068 118.865 16.0651 118.47 17.0145C118.075 17.9638 117.878 18.9841 117.892 20.0125C117.899 22.0906 118.727 24.0814 120.194 25.5505C121.661 27.0196 123.648 27.8478 125.722 27.8544C126.748 27.8693 127.767 27.6728 128.714 27.2772C129.662 26.8815 130.519 26.295 131.231 25.5541C131.974 24.838 132.563 23.9769 132.962 23.0238C133.361 22.0707 133.56 21.0458 133.548 20.0125Z" fill="#0A0A0A"/>
<path d="M160.664 27.7112V32.5337H138.96L152.096 12.3244H139.271V7.45544H161L147.851 27.7112H160.664Z" fill="#0A0A0A"/>
<path d="M50.2737 26.0477C49.4545 27.512 48.3551 28.8 47.0386 29.838C45.722 30.8761 44.2141 31.6438 42.6011 32.0973C41.0128 32.5834 39.34 32.7277 37.6922 32.5205C36.0444 32.3133 34.4589 31.7595 33.0398 30.8952C31.5961 30.0942 30.3289 29.0092 29.3141 27.7053C28.2994 26.4014 27.558 24.9055 27.1345 23.3074C26.6721 21.7272 26.5422 20.068 26.753 18.4348C26.9638 16.8017 27.5107 15.2302 28.3591 13.8198C29.1778 12.3851 30.271 11.1263 31.576 10.1156C32.8811 9.10499 34.3724 8.36236 35.9645 7.93031C37.5566 7.49826 39.2181 7.38529 40.8538 7.59786C42.4895 7.81044 44.0672 8.34439 45.4966 9.1691C47.0982 10.1339 48.4868 11.4157 49.5775 12.9362L45.7537 15.7159C45.0665 14.7131 44.1744 13.868 43.1366 13.2367C42.2513 12.7037 41.2651 12.3607 40.2406 12.2296C39.2161 12.0984 38.1756 12.1819 37.1849 12.4747C36.1881 12.7372 35.2545 13.1986 34.4398 13.8311C33.6251 14.4636 32.9461 15.2544 32.4435 16.156C31.9155 17.0386 31.5747 18.0209 31.4427 19.0415C31.3106 20.0621 31.39 21.099 31.6759 22.0874C31.9375 23.0907 32.3996 24.0303 33.0341 24.8494C33.6687 25.6685 34.4625 26.35 35.3676 26.8527C36.2521 27.3956 37.244 27.7389 38.2743 27.8588C39.3046 27.9786 40.3486 27.8721 41.3336 27.5467C43.3823 26.9317 45.1129 25.544 46.1607 23.6759L50.2737 26.0477Z" fill="#0CDC12"/>
<path d="M77.0439 20.034C77.0325 23.3613 75.7045 26.5482 73.3511 28.8955C70.9978 31.2429 67.8112 32.5591 64.4906 32.5553C62.8436 32.5817 61.2085 32.2711 59.6854 31.6424C58.1623 31.0137 56.7833 30.0802 55.6327 28.8991C54.4478 27.7517 53.5104 26.373 52.8785 24.8482C52.2465 23.3234 51.9335 21.6849 51.9588 20.034C51.935 18.385 52.2487 16.7485 52.8806 15.2256C53.5125 13.7028 54.4491 12.3258 55.6327 11.1797C56.7922 10.0074 58.1719 9.07689 59.6923 8.44185C61.2126 7.80682 62.8435 7.47986 64.4906 7.47986C66.1378 7.47986 67.7687 7.80682 69.289 8.44185C70.8094 9.07689 72.1891 10.0074 73.3486 11.1797C74.5355 12.3243 75.4758 13.7006 76.1114 15.2234C76.7469 16.7463 77.0643 18.3835 77.0439 20.034ZM72.3382 20.034C72.3471 18.7356 72.0353 17.4552 71.4306 16.3068C70.8259 15.1584 69.947 14.1778 68.8723 13.4523C67.7976 12.7269 66.5604 12.2791 65.2711 12.1489C63.9818 12.0187 62.6804 12.2102 61.4829 12.7063C60.2853 13.2023 59.2289 13.9875 58.4077 14.9919C57.5865 15.9964 57.026 17.1887 56.7762 18.4628C56.5265 19.7369 56.5952 21.0532 56.9763 22.2942C57.3573 23.5352 58.0389 24.6625 58.9602 25.5756C59.6857 26.3059 60.5481 26.8854 61.4978 27.2809C62.4475 27.6763 63.4658 27.8799 64.4942 27.8799C65.5226 27.8799 66.5409 27.6763 67.4906 27.2809C68.4403 26.8854 69.3027 26.3059 70.0282 25.5756C70.7705 24.8589 71.3584 23.9975 71.7557 23.0444C72.153 22.0913 72.3512 21.0668 72.3382 20.034Z" fill="#0CDC12"/>
<path d="M20.0295 24.1087C19.6638 24.8511 19.1817 25.5299 18.6014 26.1193C17.8192 26.921 16.8809 27.5532 15.8448 27.9765C14.8087 28.3999 13.6969 28.6055 12.5782 28.5806C11.4579 28.604 10.3446 28.3974 9.30687 27.9735C8.26918 27.5496 7.32906 26.9173 6.54438 26.1157C5.2681 24.697 4.33261 23.0046 3.80952 21.168C3.80952 21.168 6.48369 24.0658 11.3643 24.3234C14.142 24.47 17.7088 22.2806 20.4901 21.8012C21.981 21.5219 23.5185 21.6291 24.9565 22.1125C25.0582 21.4376 25.106 20.7557 25.0993 20.0733C25.1278 18.4142 24.8162 16.767 24.1836 15.2335C23.5511 13.7 22.6111 12.3129 21.4219 11.1582C20.2711 9.97215 18.8904 9.03443 17.3646 8.4026C15.8389 7.77078 14.2004 7.45821 12.5497 7.48408C10.8972 7.45674 9.25659 7.7686 7.72892 8.40046C6.20124 9.03233 4.8188 9.97082 3.66671 11.1582C2.48123 12.3122 1.54428 13.6973 0.913651 15.2282C0.283016 16.759 -0.0279306 18.4031 -1.149e-05 20.059C-0.0305961 21.7179 0.279061 23.3654 0.909781 24.8996C1.5405 26.4337 2.47885 27.8217 3.66671 28.9777C4.81964 30.163 6.20255 31.0991 7.73026 31.7285C9.25797 32.358 10.8981 32.6673 12.5497 32.6375C14.1994 32.6658 15.8375 32.3558 17.3633 31.7264C18.889 31.097 20.2702 30.1616 21.4219 28.9777C22.1737 28.1253 22.8622 27.219 23.482 26.2659L20.0295 24.1087ZM21.4219 18.0019C21.4219 18.0019 20.9399 17.569 19.5332 18.4741C7.65832 26.1157 6.01241 16.2668 6.01241 16.2668C7.80972 15.9951 9.63355 15.9458 11.4429 16.1202C13.278 16.3098 13.86 16.3992 14.8597 16.5495C15.0632 16.5495 15.2167 16.2597 14.8775 16.1667C13.5886 15.8089 10.2718 15.3581 6.01241 15.4798C6.01241 15.4798 13.3066 5.21236 21.4219 18.0019Z" fill="#0CDC12"/>
</g>
<defs>
<clipPath id="clip0_265_16178">
<rect width="161" height="40" fill="white"/>
</clipPath>
</defs>
</svg>
