<svg width="37" height="37" viewBox="0 0 37 37" fill="none" xmlns="http://www.w3.org/2000/svg">
<path fill-rule="evenodd" clip-rule="evenodd" d="M18.5 36C28.165 36 36 28.165 36 18.5C36 8.83502 28.165 1 18.5 1C8.83502 1 1 8.83502 1 18.5C1 28.165 8.83502 36 18.5 36Z" stroke="#B5B5BD" stroke-width="1.5"/>
<path d="M24 9.6665H21.5C20.395 9.6665 19.3352 10.1055 18.5538 10.8869C17.7724 11.6683 17.3334 12.7281 17.3334 13.8332V16.3332H14.8334V19.6665H17.3334V26.3332H20.6667V19.6665H23.1667L24 16.3332H20.6667V13.8332C20.6667 13.6122 20.7545 13.4002 20.9108 13.2439C21.0671 13.0876 21.279 12.9998 21.5 12.9998H24V9.6665Z" fill="#676464"/>
</svg>
